<svg width="640" height="360" viewBox="0 0 640 360" fill="none" xmlns="http://www.w3.org/2000/svg">
<g clip-path="url(#clip0_35_6878)">
<rect width="640" height="360" rx="10" fill="#3563E9"/>
<path d="M-4 300L-29 240H-4H21L46 300L21 360H-4H-29L-4 300Z" fill="white" fill-opacity="0.06"/>
<path d="M87 300L62 240H87H112L137 300L112 360H87H62L87 300Z" fill="white" fill-opacity="0.06"/>
<path d="M178 300L153 240H178H203L228 300L203 360H178H153L178 300Z" fill="white" fill-opacity="0.06"/>
<path d="M269 300L244 240H269H294L319 300L294 360H269H244L269 300Z" fill="white" fill-opacity="0.06"/>
<path d="M360 300L335 240H360H385L410 300L385 360H360H335L360 300Z" fill="white" fill-opacity="0.06"/>
<path d="M451 300L426 240H451H476L501 300L476 360H451H426L451 300Z" fill="white" fill-opacity="0.06"/>
<path d="M542 300L517 240H542H567L592 300L567 360H542H517L542 300Z" fill="white" fill-opacity="0.06"/>
<path d="M633 300L608 240H633H658L683 300L658 360H633H608L633 300Z" fill="white" fill-opacity="0.06"/>
<path d="M41 180L16 120H41H66L91 180L66 240H41H16L41 180Z" fill="white" fill-opacity="0.06"/>
<path d="M132 180L107 120H132H157L182 180L157 240H132H107L132 180Z" fill="white" fill-opacity="0.06"/>
<path d="M223 180L198 120H223H248L273 180L248 240H223H198L223 180Z" fill="white" fill-opacity="0.06"/>
<path d="M314 180L289 120H314H339L364 180L339 240H314H289L314 180Z" fill="white" fill-opacity="0.06"/>
<path d="M405 180L380 120H405H430L455 180L430 240H405H380L405 180Z" fill="white" fill-opacity="0.06"/>
<path d="M496 180L471 120H496H521L546 180L521 240H496H471L496 180Z" fill="white" fill-opacity="0.06"/>
<path d="M587 180L562 120H587H612L637 180L612 240H587H562L587 180Z" fill="white" fill-opacity="0.06"/>
<path d="M-5 60L-30 0H-5H20L45 60L20 120H-5H-30L-5 60Z" fill="white" fill-opacity="0.06"/>
<path d="M86 60L61 0H86H111L136 60L111 120H86H61L86 60Z" fill="white" fill-opacity="0.06"/>
<path d="M177 60L152 0H177H202L227 60L202 120H177H152L177 60Z" fill="white" fill-opacity="0.06"/>
<path d="M268 60L243 0H268H293L318 60L293 120H268H243L268 60Z" fill="white" fill-opacity="0.06"/>
<path d="M359 60L334 0H359H384L409 60L384 120H359H334L359 60Z" fill="white" fill-opacity="0.06"/>
<path d="M450 60L425 0H450H475L500 60L475 120H450H425L450 60Z" fill="white" fill-opacity="0.06"/>
<path d="M541 60L516 0H541H566L591 60L566 120H541H516L541 60Z" fill="white" fill-opacity="0.06"/>
<path d="M632 60L607 0H632H657L682 60L657 120H632H607L632 60Z" fill="white" fill-opacity="0.06"/>
</g>
<defs>
<clipPath id="clip0_35_6878">
<rect width="640" height="360" rx="10" fill="white"/>
</clipPath>
</defs>
</svg>
